<svg width="128" height="128" viewBox="0 0 128 128" xmlns="http://www.w3.org/2000/svg">
  <!-- Dark circle background -->
  <circle cx="64" cy="64" r="58" fill="#2c3e50"/>
  <circle cx="64" cy="64" r="54" fill="none" stroke="#3d566e" stroke-width="1"/>
  <!-- Stem -->
  <path d="M 64 70 Q 63 90 62 110" fill="none" stroke="#27ae60" stroke-width="3.5" stroke-linecap="round"/>
  <!-- Two leaves -->
  <path d="M 63 92 Q 42 82 32 68" fill="none" stroke="#27ae60" stroke-width="3" stroke-linecap="round"/>
  <path d="M 63 84 Q 82 76 92 64" fill="none" stroke="#2ecc71" stroke-width="3" stroke-linecap="round"/>
  <!-- Petals -->
  <path d="M 64 68 Q 30 40 26 16 Q 40 30 64 60" fill="#ecf0f1" opacity="0.9"/>
  <path d="M 64 68 Q 98 40 102 16 Q 88 30 64 60" fill="#dfe6e9" opacity="0.9"/>
  <path d="M 64 66 Q 64 22 64 10 Q 65 22 65 66" fill="#f0f3f4" opacity="0.9"/>
  <path d="M 64 68 Q 34 60 18 42 Q 40 52 64 62" fill="#d5dbdb" opacity="0.85"/>
  <path d="M 64 68 Q 94 60 110 42 Q 88 52 64 62" fill="#ccd1d1" opacity="0.85"/>
  <!-- Stamens -->
  <line x1="58" y1="62" x2="50" y2="46" stroke="#f1c40f" stroke-width="1.5" stroke-linecap="round"/>
  <line x1="64" y1="60" x2="64" y2="42" stroke="#f1c40f" stroke-width="1.5" stroke-linecap="round"/>
  <line x1="70" y1="62" x2="78" y2="46" stroke="#f1c40f" stroke-width="1.5" stroke-linecap="round"/>
  <circle cx="50" cy="44" r="2.5" fill="#e67e22"/>
  <circle cx="64" cy="40" r="2.5" fill="#e67e22"/>
  <circle cx="78" cy="44" r="2.5" fill="#e67e22"/>
</svg>