<svg width="24" height="24" viewBox="3 3 18 18" fill="none" xmlns="http://www.w3.org/2000/svg">
    <path d="M8 5C7 5 6 5.5 6 7V9.5C6 10.5 5.5 11 4.5 11.5C5.5 12 6 12.5 6 13.5V16C6 17.5 7 18 8 18"
        stroke="#63E6F6" stroke-width="1" stroke-linecap="round" fill="none" />

    <path
        d="M16 5C17 5 18 5.5 18 7V9.5C18 10.5 18.5 11 19.5 11.5C18.5 12 18 12.5 18 13.5V16C18 17.5 17 18 16 18"
        stroke="#63E6F6" stroke-width="1" stroke-linecap="round" fill="none" />

    <rect x="9" y="8" width="6" height="8" stroke="#63E6F6" rx="0.5" />
</svg>